<!DOCTYPE svg PUBLIC "-//W3C//DTD SVG 1.1//EN" "http://www.w3.org/Graphics/SVG/1.1/DTD/svg11.dtd">
<!-- Uploaded to: SVG Repo, www.svgrepo.com, Transformed by: SVG Repo Mixer Tools -->
<svg fill="#ffffff" version="1.1" id="Capa_1" xmlns="http://www.w3.org/2000/svg" xmlns:xlink="http://www.w3.org/1999/xlink" width="800px" height="800px" viewBox="0 0 365.86 365.86" xml:space="preserve" stroke="#ffffff">
<g id="SVGRepo_bgCarrier" stroke-width="0"/>
<g id="SVGRepo_tracerCarrier" stroke-linecap="round" stroke-linejoin="round"/>
<g id="SVGRepo_iconCarrier"> <g> <g> <path d="M182.93,65.332c8.503,0,16.778,0.955,24.764,2.675c3.278-6.992,5.212-15.453,5.212-24.583 c0,0-13.246-43.423-29.589-43.423h-0.769c-16.345,0-29.588,43.423-29.588,43.423c0,9.13,1.93,17.591,5.209,24.583 C166.156,66.287,174.428,65.332,182.93,65.332z"/> <path d="M322.434,152.954c-9.127,0-17.588,1.931-24.584,5.209c1.729,7.992,2.679,16.27,2.679,24.767 c0,8.497-0.949,16.777-2.679,24.764c6.996,3.278,15.457,5.212,24.584,5.212c0,0,43.427-13.252,43.427-29.588v-0.769 C365.86,166.207,322.434,152.954,322.434,152.954z"/> <path d="M182.93,300.528c-8.502,0-16.774-0.955-24.767-2.679c-3.279,6.995-5.209,15.456-5.209,24.583 c0,0,13.25,43.428,29.589,43.428h0.769c16.349,0,29.589-43.428,29.589-43.428c0-9.127-1.928-17.588-5.206-24.583 C199.708,299.573,191.434,300.528,182.93,300.528z"/> <path d="M111.05,306.185c6.179-6.773,10.473-14.363,12.751-21.773c-14.405-8.425-26.844-19.792-36.518-33.32 c-7.169,2.947-14.339,7.914-20.518,14.693c0,0-19.486,41-7.41,52.025l0.567,0.517C71.992,329.339,111.05,306.185,111.05,306.185z"/> <path d="M87.283,114.77c9.668-13.529,22.113-24.896,36.518-33.321c-2.278-7.41-6.566-14.997-12.751-21.773 c0,0-39.058-23.151-51.128-12.139l-0.567,0.517c-12.069,11.013,7.41,52.025,7.41,52.025 C72.943,106.855,80.107,111.818,87.283,114.77z"/> <path d="M278.574,114.77c7.17-2.951,14.34-7.915,20.524-14.691c0,0,19.492-41.006,7.41-52.025l-0.564-0.517 c-12.069-11.013-51.125,12.139-51.125,12.139c-6.185,6.777-10.472,14.364-12.754,21.773 C256.465,89.874,268.907,101.24,278.574,114.77z"/> <path d="M278.574,251.091c-9.667,13.528-22.109,24.896-36.515,33.32c2.275,7.41,6.563,15,12.748,21.773 c0,0,39.062,23.154,51.131,12.142l0.57-0.517c12.069-11.013-7.41-52.025-7.41-52.025 C292.914,259.005,285.756,254.038,278.574,251.091z"/> <path d="M43.424,212.905c9.13,0,17.591-1.934,24.583-5.212c-1.723-7.986-2.675-16.267-2.675-24.764 c0-8.497,0.952-16.774,2.675-24.767c-6.993-3.278-15.453-5.209-24.583-5.209c0,0-43.424,13.252-43.424,29.588v0.77 C0,199.653,43.424,212.905,43.424,212.905z"/> <path d="M100.253,117.85c-10.755,13.643-18.159,30-21.104,47.895c-0.922,5.608-1.525,11.319-1.525,17.186 c0,5.867,0.604,11.577,1.525,17.186c2.945,17.895,10.343,34.252,21.104,47.895c7.143,9.067,15.72,16.915,25.424,23.227 c11.91,7.734,25.481,13.066,40.061,15.468c5.609,0.926,11.319,1.525,17.186,1.525s11.578-0.6,17.186-1.525 c14.579-2.401,28.15-7.733,40.058-15.468c9.704-6.305,18.284-14.159,25.424-23.227c10.761-13.643,18.159-30,21.107-47.895 c0.919-5.608,1.525-11.318,1.525-17.186c0-5.866-0.606-11.577-1.525-17.186c-2.948-17.889-10.347-34.251-21.107-47.895 c-7.14-9.064-15.72-16.915-25.424-23.224c-11.907-7.737-25.479-13.072-40.058-15.471c-5.608-0.922-11.319-1.525-17.186-1.525 s-11.577,0.604-17.186,1.525c-14.579,2.398-28.15,7.734-40.061,15.471C115.974,100.935,107.396,108.786,100.253,117.85z"/> </g> </g> </g>
</svg>